<mxfile host="app.diagrams.net" agent="Mozilla/5.0 (Windows NT 10.0; Win64; x64) AppleWebKit/537.36 (KHTML, like Gecko) Chrome/137.0.0.0 Safari/537.36" version="27.0.9">
  <diagram name="PÃ¡gina-1" id="yJrpd_jDE4b5SMeJ8ob1">
    <mxGraphModel dx="1303" dy="659" grid="1" gridSize="10" guides="1" tooltips="1" connect="1" arrows="1" fold="1" page="1" pageScale="1" pageWidth="827" pageHeight="1169" math="0" shadow="0">
      <root>
        <mxCell id="0" />
        <mxCell id="1" parent="0" />
        <mxCell id="GeJVObKHV3db_-saIg1Y-1" value="&lt;div&gt;&lt;font style=&quot;font-size: 15px;&quot;&gt;&lt;br&gt;&lt;/font&gt;&lt;/div&gt;&lt;div&gt;&lt;font style=&quot;font-size: 15px;&quot;&gt;&lt;br&gt;&lt;/font&gt;&lt;/div&gt;&lt;div&gt;&lt;font style=&quot;font-size: 15px;&quot;&gt;Jugador&lt;/font&gt;&lt;/div&gt;" style="shape=actor;whiteSpace=wrap;html=1;" vertex="1" parent="1">
          <mxGeometry x="30" y="420" width="70" height="90" as="geometry" />
        </mxCell>
        <mxCell id="GeJVObKHV3db_-saIg1Y-2" value="&lt;div&gt;&lt;br&gt;&lt;/div&gt;&lt;div&gt;&lt;br&gt;&lt;/div&gt;&lt;div&gt;&lt;font style=&quot;font-size: 16px;&quot;&gt;Admin&lt;/font&gt;&lt;/div&gt;" style="shape=actor;whiteSpace=wrap;html=1;" vertex="1" parent="1">
          <mxGeometry x="720" y="480" width="70" height="90" as="geometry" />
        </mxCell>
        <mxCell id="GeJVObKHV3db_-saIg1Y-3" value="&lt;font style=&quot;font-size: 23px;&quot;&gt;Agregar Item&lt;/font&gt;" style="ellipse;whiteSpace=wrap;html=1;" vertex="1" parent="1">
          <mxGeometry x="294" y="30" width="266" height="50" as="geometry" />
        </mxCell>
        <mxCell id="GeJVObKHV3db_-saIg1Y-4" style="edgeStyle=orthogonalEdgeStyle;rounded=0;orthogonalLoop=1;jettySize=auto;html=1;exitX=0.5;exitY=1;exitDx=0;exitDy=0;" edge="1" parent="1" source="GeJVObKHV3db_-saIg1Y-3" target="GeJVObKHV3db_-saIg1Y-3">
          <mxGeometry relative="1" as="geometry" />
        </mxCell>
        <mxCell id="GeJVObKHV3db_-saIg1Y-5" value="&lt;font style=&quot;font-size: 23px;&quot;&gt;Fabricar Item&lt;/font&gt;&lt;span style=&quot;color: rgba(0, 0, 0, 0); font-family: monospace; font-size: 0px; text-align: start; text-wrap-mode: nowrap;&quot;&gt;%3CmxGraphModel%3E%3Croot%3E%3CmxCell%20id%3D%220%22%2F%3E%3CmxCell%20id%3D%221%22%20parent%3D%220%22%2F%3E%3CmxCell%20id%3D%222%22%20value%3D%22%26lt%3Bfont%20style%3D%26quot%3Bfont-size%3A%2023px%3B%26quot%3B%26gt%3BLogin%26lt%3B%2Ffont%26gt%3B%22%20style%3D%22ellipse%3BwhiteSpace%3Dwrap%3Bhtml%3D1%3B%22%20vertex%3D%221%22%20parent%3D%221%22%3E%3CmxGeometry%20x%3D%22294%22%20y%3D%2250%22%20width%3D%22266%22%20height%3D%2260%22%20as%3D%22geometry%22%2F%3E%3C%2FmxCell%3E%3C%2Froot%3E%3C%2FmxGraphModel%3E&lt;/span&gt;" style="ellipse;whiteSpace=wrap;html=1;" vertex="1" parent="1">
          <mxGeometry x="294" y="100" width="266" height="50" as="geometry" />
        </mxCell>
        <mxCell id="GeJVObKHV3db_-saIg1Y-6" value="&lt;font style=&quot;font-size: 23px;&quot;&gt;Vender Item&lt;/font&gt;" style="ellipse;whiteSpace=wrap;html=1;" vertex="1" parent="1">
          <mxGeometry x="294" y="240" width="266" height="50" as="geometry" />
        </mxCell>
        <mxCell id="GeJVObKHV3db_-saIg1Y-7" value="&lt;font style=&quot;font-size: 23px;&quot;&gt;Comprar Item&lt;/font&gt;" style="ellipse;whiteSpace=wrap;html=1;" vertex="1" parent="1">
          <mxGeometry x="294" y="310" width="266" height="50" as="geometry" />
        </mxCell>
        <mxCell id="GeJVObKHV3db_-saIg1Y-18" value="" style="endArrow=none;html=1;rounded=0;entryX=0;entryY=0.5;entryDx=0;entryDy=0;exitX=0.5;exitY=0;exitDx=0;exitDy=0;" edge="1" parent="1" source="GeJVObKHV3db_-saIg1Y-1" target="GeJVObKHV3db_-saIg1Y-5">
          <mxGeometry width="50" height="50" relative="1" as="geometry">
            <mxPoint x="160" y="210" as="sourcePoint" />
            <mxPoint x="290" y="160" as="targetPoint" />
          </mxGeometry>
        </mxCell>
        <mxCell id="GeJVObKHV3db_-saIg1Y-20" value="" style="endArrow=none;html=1;rounded=0;exitX=0.708;exitY=0.09;exitDx=0;exitDy=0;exitPerimeter=0;entryX=0;entryY=0.5;entryDx=0;entryDy=0;" edge="1" parent="1" source="GeJVObKHV3db_-saIg1Y-1" target="GeJVObKHV3db_-saIg1Y-6">
          <mxGeometry width="50" height="50" relative="1" as="geometry">
            <mxPoint x="160" y="220" as="sourcePoint" />
            <mxPoint x="290" y="230" as="targetPoint" />
          </mxGeometry>
        </mxCell>
        <mxCell id="GeJVObKHV3db_-saIg1Y-21" value="" style="endArrow=none;html=1;rounded=0;entryX=0;entryY=0.5;entryDx=0;entryDy=0;exitX=0.75;exitY=0.25;exitDx=0;exitDy=0;exitPerimeter=0;" edge="1" parent="1" source="GeJVObKHV3db_-saIg1Y-1" target="GeJVObKHV3db_-saIg1Y-7">
          <mxGeometry width="50" height="50" relative="1" as="geometry">
            <mxPoint x="160" y="240" as="sourcePoint" />
            <mxPoint x="290" y="190" as="targetPoint" />
          </mxGeometry>
        </mxCell>
        <mxCell id="GeJVObKHV3db_-saIg1Y-22" value="" style="endArrow=none;html=1;rounded=0;entryX=0.5;entryY=0;entryDx=0;entryDy=0;exitX=1;exitY=0.5;exitDx=0;exitDy=0;" edge="1" parent="1" source="GeJVObKHV3db_-saIg1Y-3" target="GeJVObKHV3db_-saIg1Y-2">
          <mxGeometry width="50" height="50" relative="1" as="geometry">
            <mxPoint x="690" y="250" as="sourcePoint" />
            <mxPoint x="820" y="200" as="targetPoint" />
          </mxGeometry>
        </mxCell>
        <mxCell id="GeJVObKHV3db_-saIg1Y-23" value="&lt;font style=&quot;font-size: 23px;&quot;&gt;Equipar Item&lt;/font&gt;" style="ellipse;whiteSpace=wrap;html=1;" vertex="1" parent="1">
          <mxGeometry x="294" y="380" width="266" height="50" as="geometry" />
        </mxCell>
        <mxCell id="GeJVObKHV3db_-saIg1Y-24" value="&lt;font style=&quot;font-size: 23px;&quot;&gt;Usar Item&lt;/font&gt;" style="ellipse;whiteSpace=wrap;html=1;" vertex="1" parent="1">
          <mxGeometry x="294" y="450" width="266" height="60" as="geometry" />
        </mxCell>
        <mxCell id="GeJVObKHV3db_-saIg1Y-26" value="" style="endArrow=none;html=1;rounded=0;exitX=0.676;exitY=0.421;exitDx=0;exitDy=0;exitPerimeter=0;entryX=0;entryY=0.5;entryDx=0;entryDy=0;" edge="1" parent="1" source="GeJVObKHV3db_-saIg1Y-1" target="GeJVObKHV3db_-saIg1Y-23">
          <mxGeometry width="50" height="50" relative="1" as="geometry">
            <mxPoint x="290" y="610" as="sourcePoint" />
            <mxPoint x="340" y="560" as="targetPoint" />
          </mxGeometry>
        </mxCell>
        <mxCell id="GeJVObKHV3db_-saIg1Y-27" value="" style="endArrow=none;html=1;rounded=0;exitX=1;exitY=0.75;exitDx=0;exitDy=0;entryX=0;entryY=0.5;entryDx=0;entryDy=0;" edge="1" parent="1" source="GeJVObKHV3db_-saIg1Y-1" target="GeJVObKHV3db_-saIg1Y-24">
          <mxGeometry width="50" height="50" relative="1" as="geometry">
            <mxPoint x="290" y="610" as="sourcePoint" />
            <mxPoint x="340" y="560" as="targetPoint" />
          </mxGeometry>
        </mxCell>
        <mxCell id="GeJVObKHV3db_-saIg1Y-28" value="&lt;font style=&quot;font-size: 23px;&quot;&gt;Borrar Item&lt;/font&gt;" style="ellipse;whiteSpace=wrap;html=1;" vertex="1" parent="1">
          <mxGeometry x="294" y="530" width="266" height="60" as="geometry" />
        </mxCell>
        <mxCell id="GeJVObKHV3db_-saIg1Y-29" value="" style="endArrow=none;html=1;rounded=0;entryX=0;entryY=0.75;entryDx=0;entryDy=0;exitX=1;exitY=0.5;exitDx=0;exitDy=0;" edge="1" parent="1" source="GeJVObKHV3db_-saIg1Y-28" target="GeJVObKHV3db_-saIg1Y-2">
          <mxGeometry width="50" height="50" relative="1" as="geometry">
            <mxPoint x="610" y="460" as="sourcePoint" />
            <mxPoint x="640" y="380" as="targetPoint" />
          </mxGeometry>
        </mxCell>
        <mxCell id="GeJVObKHV3db_-saIg1Y-32" value="&lt;font style=&quot;font-size: 23px;&quot;&gt;Modificar Item&lt;/font&gt;" style="ellipse;whiteSpace=wrap;html=1;" vertex="1" parent="1">
          <mxGeometry x="294" y="610" width="266" height="60" as="geometry" />
        </mxCell>
        <mxCell id="GeJVObKHV3db_-saIg1Y-33" value="" style="endArrow=none;html=1;rounded=0;entryX=-0.014;entryY=1.005;entryDx=0;entryDy=0;entryPerimeter=0;exitX=1;exitY=0.5;exitDx=0;exitDy=0;" edge="1" parent="1" source="GeJVObKHV3db_-saIg1Y-32" target="GeJVObKHV3db_-saIg1Y-2">
          <mxGeometry width="50" height="50" relative="1" as="geometry">
            <mxPoint x="640" y="460" as="sourcePoint" />
            <mxPoint x="690" y="410" as="targetPoint" />
          </mxGeometry>
        </mxCell>
        <mxCell id="GeJVObKHV3db_-saIg1Y-34" value="&lt;font style=&quot;font-size: 23px;&quot;&gt;Atacar&lt;/font&gt;" style="ellipse;whiteSpace=wrap;html=1;" vertex="1" parent="1">
          <mxGeometry x="294" y="690" width="266" height="60" as="geometry" />
        </mxCell>
        <mxCell id="GeJVObKHV3db_-saIg1Y-35" value="&lt;font style=&quot;font-size: 23px;&quot;&gt;Usar Habilidad&lt;/font&gt;" style="ellipse;whiteSpace=wrap;html=1;" vertex="1" parent="1">
          <mxGeometry x="294" y="770" width="266" height="60" as="geometry" />
        </mxCell>
        <mxCell id="GeJVObKHV3db_-saIg1Y-36" value="&lt;font style=&quot;font-size: 23px;&quot;&gt;Modificar Habilidad&lt;/font&gt;" style="ellipse;whiteSpace=wrap;html=1;" vertex="1" parent="1">
          <mxGeometry x="294" y="850" width="266" height="60" as="geometry" />
        </mxCell>
        <mxCell id="GeJVObKHV3db_-saIg1Y-38" value="&lt;font style=&quot;font-size: 23px;&quot;&gt;Crear Habilidad&lt;/font&gt;" style="ellipse;whiteSpace=wrap;html=1;" vertex="1" parent="1">
          <mxGeometry x="294" y="930" width="266" height="60" as="geometry" />
        </mxCell>
        <mxCell id="GeJVObKHV3db_-saIg1Y-40" value="&lt;font style=&quot;font-size: 23px;&quot;&gt;Borrar Habilidad&lt;/font&gt;" style="ellipse;whiteSpace=wrap;html=1;" vertex="1" parent="1">
          <mxGeometry x="294" y="1010" width="266" height="60" as="geometry" />
        </mxCell>
        <mxCell id="GeJVObKHV3db_-saIg1Y-41" value="" style="endArrow=none;html=1;rounded=0;exitX=0.965;exitY=1.005;exitDx=0;exitDy=0;exitPerimeter=0;entryX=0;entryY=0.5;entryDx=0;entryDy=0;" edge="1" parent="1" source="GeJVObKHV3db_-saIg1Y-1" target="GeJVObKHV3db_-saIg1Y-34">
          <mxGeometry width="50" height="50" relative="1" as="geometry">
            <mxPoint x="110" y="528.57" as="sourcePoint" />
            <mxPoint x="250" y="528.57" as="targetPoint" />
          </mxGeometry>
        </mxCell>
        <mxCell id="GeJVObKHV3db_-saIg1Y-42" value="" style="endArrow=none;html=1;rounded=0;entryX=0;entryY=0.5;entryDx=0;entryDy=0;exitX=0.5;exitY=1;exitDx=0;exitDy=0;" edge="1" parent="1" source="GeJVObKHV3db_-saIg1Y-1" target="GeJVObKHV3db_-saIg1Y-35">
          <mxGeometry width="50" height="50" relative="1" as="geometry">
            <mxPoint x="130" y="400" as="sourcePoint" />
            <mxPoint x="140" y="510" as="targetPoint" />
          </mxGeometry>
        </mxCell>
        <mxCell id="GeJVObKHV3db_-saIg1Y-43" value="" style="endArrow=none;html=1;rounded=0;exitX=1;exitY=0.5;exitDx=0;exitDy=0;entryX=0.25;entryY=1;entryDx=0;entryDy=0;" edge="1" parent="1" source="GeJVObKHV3db_-saIg1Y-36" target="GeJVObKHV3db_-saIg1Y-2">
          <mxGeometry width="50" height="50" relative="1" as="geometry">
            <mxPoint x="650" y="490" as="sourcePoint" />
            <mxPoint x="700" y="440" as="targetPoint" />
          </mxGeometry>
        </mxCell>
        <mxCell id="GeJVObKHV3db_-saIg1Y-44" value="" style="endArrow=none;html=1;rounded=0;exitX=1;exitY=0.5;exitDx=0;exitDy=0;entryX=0.5;entryY=1;entryDx=0;entryDy=0;" edge="1" parent="1" source="GeJVObKHV3db_-saIg1Y-38" target="GeJVObKHV3db_-saIg1Y-2">
          <mxGeometry width="50" height="50" relative="1" as="geometry">
            <mxPoint x="580" y="920" as="sourcePoint" />
            <mxPoint x="620" y="860" as="targetPoint" />
          </mxGeometry>
        </mxCell>
        <mxCell id="GeJVObKHV3db_-saIg1Y-45" value="" style="endArrow=none;html=1;rounded=0;entryX=0.916;entryY=0.992;entryDx=0;entryDy=0;entryPerimeter=0;exitX=1;exitY=0.5;exitDx=0;exitDy=0;" edge="1" parent="1" source="GeJVObKHV3db_-saIg1Y-40" target="GeJVObKHV3db_-saIg1Y-2">
          <mxGeometry width="50" height="50" relative="1" as="geometry">
            <mxPoint x="680" y="680" as="sourcePoint" />
            <mxPoint x="730" y="630" as="targetPoint" />
          </mxGeometry>
        </mxCell>
        <mxCell id="GeJVObKHV3db_-saIg1Y-47" value="&lt;font style=&quot;font-size: 23px;&quot;&gt;Recolectar&lt;/font&gt;" style="ellipse;whiteSpace=wrap;html=1;" vertex="1" parent="1">
          <mxGeometry x="294" y="1090" width="266" height="60" as="geometry" />
        </mxCell>
        <mxCell id="GeJVObKHV3db_-saIg1Y-48" value="" style="endArrow=none;html=1;rounded=0;entryX=0;entryY=0.5;entryDx=0;entryDy=0;exitX=0.25;exitY=1;exitDx=0;exitDy=0;" edge="1" parent="1" source="GeJVObKHV3db_-saIg1Y-1" target="GeJVObKHV3db_-saIg1Y-47">
          <mxGeometry width="50" height="50" relative="1" as="geometry">
            <mxPoint x="190" y="750" as="sourcePoint" />
            <mxPoint x="240" y="700" as="targetPoint" />
          </mxGeometry>
        </mxCell>
        <mxCell id="GeJVObKHV3db_-saIg1Y-50" value="&lt;span style=&quot;font-size: 23px;&quot;&gt;Mover Item&lt;/span&gt;" style="ellipse;whiteSpace=wrap;html=1;" vertex="1" parent="1">
          <mxGeometry x="294" y="170" width="266" height="50" as="geometry" />
        </mxCell>
        <mxCell id="GeJVObKHV3db_-saIg1Y-51" value="" style="endArrow=none;html=1;rounded=0;entryX=0;entryY=0.5;entryDx=0;entryDy=0;exitX=0.643;exitY=0.047;exitDx=0;exitDy=0;exitPerimeter=0;" edge="1" parent="1" source="GeJVObKHV3db_-saIg1Y-1" target="GeJVObKHV3db_-saIg1Y-50">
          <mxGeometry width="50" height="50" relative="1" as="geometry">
            <mxPoint x="230" y="260" as="sourcePoint" />
            <mxPoint x="280" y="210" as="targetPoint" />
          </mxGeometry>
        </mxCell>
      </root>
    </mxGraphModel>
  </diagram>
</mxfile>
